.
 
http://www.scenetime.com    -   SceneTime [ We been having it ] !!!


How come you press harder on a remote control when you know the battery is dead? so you better seed to get speed ;)

        Seed back for speed


...................................NFO:.................................................[IMG]http://i184.photobucket.com/albums/x292/miff2001/tran.png[/IMG]

[IMG]http://i184.photobucket.com/albums/x292/miff2001/INFO.png[/IMG]

General
Format                           : Matroska
File size                        : 904 MiB
Duration                         : 2h 20mn
Overall bit rate                 : 898 Kbps
Movie name                       : Avidemux
Writing application              : Lavf52.108.0
Writing library                  : Lavf52.108.0
AUTHOR                           : Avidemux

Video
ID                               : 1
Format                           : AVC
Format/Info                      : Advanced Video Codec
Format profile                   : High@L3.0
Format settings, CABAC           : Yes
Format settings, ReFrames        : 4 frames
Codec ID                         : V_MPEG4/ISO/AVC
Duration                         : 2h 20mn
Bit rate                         : 752 Kbps
Width                            : 720 pixels
Height                           : 304 pixels
Display aspect ratio             : 2.35:1
Frame rate mode                  : Variable
Frame rate                       : 25.000 fps
Color space                      : YUV
Chroma subsampling               : 4:2:0
Bit depth                        : 8 bits
Scan type                        : Progressive
Bits/(Pixel*Frame)               : 0.137
Stream size                      : 757 MiB (84%)
Writing library                  : x264 core 115 r1947 b5a8ad7
Language                         : English

Audio
ID                               : 2
Format                           : AC-3
Format/Info                      : Audio Coding 3
Mode extension                   : CM (complete main)
Codec ID                         : A_AC3
Duration                         : 2h 20mn
Bit rate mode                    : Constant
Bit rate                         : 128 Kbps
Channel(s)                       : 2 channels
Channel positions                : Front: L R
Sampling rate                    : 48.0 KHz
Bit depth                        : 16 bits
Compression mode                 : Lossy
Delay relative to video          : -40ms
Stream size                      : 129 MiB (14%)
Language                         : English 
http://www.imdb.com/title/tt1399103/

[IMG]http://i184.photobucket.com/albums/x292/miff2001/SCREEN-1.png[/IMG]

[IMG]http://i184.photobucket.com/albums/x292/miff2001/Transformers3DarkOfTheMoonV2Ts-djjohnnyb-PR3DATOR-RG_idx.jpg[/IMG]


[IMG]http://i184.photobucket.com/albums/x292/miff2001/PR3D.png[/IMG] [IMG]http://i184.photobucket.com/albums/x292/miff2001/DJJOHNNYB.png[/IMG]
[IMG]http://i184.photobucket.com/albums/x292/miff2001/sig-2.png[/IMG]